<svg width="158" height="180" viewBox="0 0 158 180" fill="none" xmlns="http://www.w3.org/2000/svg">
<path d="M155.519 103.68C155.519 145.83 121.188 180 78.839 180C36.4898 180 2.15894 145.83 2.15894 103.68C56.4209 103.68 36.4898 103.68 78.839 103.68C121.188 103.68 78.839 103.68 155.519 103.68Z" fill="#3B86CB"/>
<path d="M130.027 16.7161C145.01 25.7404 148.822 46.8853 138.545 63.9498C138.384 64.216 138.224 64.4822 138.056 64.7364C122.152 90.1468 85.2091 101.923 77.7231 103.67C75.7937 96.4375 70.8244 57.3009 82.8353 33.8918C82.8843 33.8103 82.9226 33.7223 82.9608 33.6343L83.779 32.1281C83.9492 31.8456 84.1117 31.5511 84.2819 31.2686C94.5593 14.2042 115.038 7.68858 130.016 16.7096L130.027 16.7161Z" fill="#3FD961"/>
<path d="M27.3602 15.948C12.2471 24.7538 8.12877 45.8411 18.1574 63.053C18.3138 63.3215 18.4703 63.59 18.6345 63.8466C34.1675 89.4853 70.936 101.797 78.3958 103.653C80.43 96.4485 85.9671 57.3881 74.2974 33.8071C74.2495 33.7249 74.2126 33.6364 74.1756 33.5478L73.3793 32.0299C73.2133 31.745 73.055 31.4482 72.889 31.1632C62.8604 13.9514 42.4788 7.13906 27.3712 15.9416L27.3602 15.948Z" fill="#3FD961"/>
<path d="M93.3992 72.6255C91.7834 74.5064 88.866 72.3477 90.1922 70.2526L114.469 31.8999C115.091 30.9183 116.415 30.6708 117.349 31.3619L122.649 35.2837C123.583 35.9747 123.734 37.3134 122.977 38.1947L93.3992 72.6255Z" fill="white"/>
<path d="M62.9799 72.6552C64.6 74.5324 67.5124 72.3669 66.1814 70.2749L41.8157 31.9784C41.192 30.9982 39.8672 30.7538 38.9349 31.447L33.6437 35.381C32.7114 36.0742 32.5639 37.4132 33.323 38.2928L62.9799 72.6552Z" fill="white"/>
</svg>
