<svg width="430" height="61" viewBox="0 0 430 61" fill="none" xmlns="http://www.w3.org/2000/svg">
<rect width="430" height="61" rx="5" fill="#329E50"/>
<path d="M156.526 34.334V36H149.454V23.76H151.443V34.334H156.526ZM161.113 27.194C161.753 27.194 162.331 27.2988 162.847 27.5085C163.368 27.7182 163.81 28.0157 164.173 28.401C164.541 28.7863 164.825 29.2538 165.023 29.8035C165.221 30.3532 165.32 30.9708 165.32 31.6565C165.32 32.3422 165.221 32.9598 165.023 33.5095C164.825 34.0592 164.541 34.5295 164.173 34.9205C163.81 35.3058 163.368 35.6033 162.847 35.813C162.331 36.0227 161.753 36.1275 161.113 36.1275C160.467 36.1275 159.883 36.0227 159.362 35.813C158.846 35.6033 158.404 35.3058 158.036 34.9205C157.668 34.5295 157.384 34.0592 157.186 33.5095C156.988 32.9598 156.888 32.3422 156.888 31.6565C156.888 30.9708 156.988 30.3532 157.186 29.8035C157.384 29.2538 157.668 28.7863 158.036 28.401C158.404 28.0157 158.846 27.7182 159.362 27.5085C159.883 27.2988 160.467 27.194 161.113 27.194ZM161.113 34.6995C161.895 34.6995 162.476 34.4388 162.855 33.9175C163.241 33.3905 163.433 32.6397 163.433 31.665C163.433 30.6903 163.241 29.9395 162.855 29.4125C162.476 28.8798 161.895 28.6135 161.113 28.6135C160.32 28.6135 159.73 28.8798 159.345 29.4125C158.96 29.9395 158.767 30.6903 158.767 31.665C158.767 32.6397 158.96 33.3905 159.345 33.9175C159.73 34.4388 160.32 34.6995 161.113 34.6995ZM170.104 31.5885C170.671 31.5885 171.096 31.444 171.379 31.155C171.662 30.866 171.804 30.4892 171.804 30.0245C171.804 29.5485 171.662 29.1717 171.379 28.894C171.096 28.6163 170.671 28.4775 170.104 28.4775C169.543 28.4775 169.118 28.6163 168.829 28.894C168.546 29.1717 168.404 29.5485 168.404 30.0245C168.404 30.2512 168.441 30.4608 168.514 30.6535C168.588 30.8462 168.696 31.0133 168.837 31.155C168.979 31.291 169.155 31.3987 169.364 31.478C169.58 31.5517 169.826 31.5885 170.104 31.5885ZM172.645 36.425C172.645 36.2323 172.589 36.0793 172.475 35.966C172.368 35.847 172.22 35.7563 172.033 35.694C171.846 35.626 171.628 35.5778 171.379 35.5495C171.13 35.5155 170.863 35.4928 170.58 35.4815C170.302 35.4645 170.016 35.4503 169.721 35.439C169.432 35.422 169.152 35.3937 168.88 35.354C168.608 35.4957 168.384 35.6657 168.208 35.864C168.038 36.0623 167.953 36.2918 167.953 36.5525C167.953 36.7225 167.996 36.8812 168.081 37.0285C168.172 37.1758 168.308 37.3033 168.489 37.411C168.676 37.5187 168.911 37.6037 169.194 37.666C169.483 37.7283 169.829 37.7595 170.231 37.7595C171.036 37.7595 171.64 37.6348 172.042 37.3855C172.444 37.1362 172.645 36.816 172.645 36.425ZM174.481 27.6445V28.3245C174.481 28.5512 174.345 28.69 174.073 28.741L173.206 28.8855C173.354 29.2142 173.427 29.5797 173.427 29.982C173.427 30.407 173.342 30.7923 173.172 31.138C173.008 31.4837 172.779 31.7783 172.484 32.022C172.189 32.2657 171.838 32.4527 171.43 32.583C171.022 32.7133 170.58 32.7785 170.104 32.7785C169.923 32.7785 169.744 32.77 169.568 32.753C169.398 32.7303 169.231 32.702 169.067 32.668C168.903 32.7643 168.781 32.8663 168.701 32.974C168.622 33.0817 168.582 33.1922 168.582 33.3055C168.582 33.4925 168.665 33.6313 168.829 33.722C168.993 33.8127 169.209 33.8778 169.475 33.9175C169.747 33.9572 170.056 33.9827 170.401 33.994C170.747 34.0053 171.098 34.0252 171.455 34.0535C171.812 34.0818 172.164 34.13 172.509 34.198C172.855 34.2603 173.161 34.368 173.427 34.521C173.699 34.6683 173.918 34.8695 174.082 35.1245C174.246 35.3795 174.328 35.711 174.328 36.119C174.328 36.493 174.235 36.8585 174.048 37.2155C173.861 37.5725 173.589 37.8898 173.232 38.1675C172.881 38.4452 172.45 38.6662 171.94 38.8305C171.43 39.0005 170.849 39.0855 170.197 39.0855C169.551 39.0855 168.988 39.0232 168.506 38.8985C168.03 38.7738 167.63 38.6038 167.307 38.3885C166.99 38.1788 166.752 37.9352 166.593 37.6575C166.44 37.3798 166.364 37.0908 166.364 36.7905C166.364 36.3825 166.491 36.034 166.746 35.745C167.007 35.456 167.358 35.2293 167.8 35.065C167.562 34.9517 167.37 34.7958 167.222 34.5975C167.081 34.3992 167.01 34.1385 167.01 33.8155C167.01 33.5605 167.103 33.2942 167.29 33.0165C167.477 32.7388 167.758 32.5037 168.132 32.311C167.701 32.073 167.361 31.7585 167.112 31.3675C166.863 30.9708 166.738 30.509 166.738 29.982C166.738 29.5513 166.82 29.1632 166.984 28.8175C167.154 28.4718 167.39 28.1772 167.69 27.9335C167.99 27.6898 168.344 27.5028 168.752 27.3725C169.166 27.2422 169.617 27.177 170.104 27.177C170.852 27.177 171.504 27.3328 172.059 27.6445H174.481ZM177.829 27.33V36H176.002V27.33H177.829ZM178.135 24.712C178.135 24.8763 178.101 25.0322 178.033 25.1795C177.971 25.3268 177.883 25.4572 177.77 25.5705C177.656 25.6782 177.523 25.766 177.37 25.834C177.223 25.8963 177.064 25.9275 176.894 25.9275C176.73 25.9275 176.574 25.8963 176.427 25.834C176.285 25.766 176.16 25.6782 176.053 25.5705C175.945 25.4572 175.857 25.3268 175.789 25.1795C175.727 25.0322 175.696 24.8763 175.696 24.712C175.696 24.542 175.727 24.3833 175.789 24.236C175.857 24.0887 175.945 23.9612 176.053 23.8535C176.16 23.7402 176.285 23.6523 176.427 23.59C176.574 23.522 176.73 23.488 176.894 23.488C177.064 23.488 177.223 23.522 177.37 23.59C177.523 23.6523 177.656 23.7402 177.77 23.8535C177.883 23.9612 177.971 24.0887 178.033 24.236C178.101 24.3833 178.135 24.542 178.135 24.712ZM181.834 28.4775C182.021 28.2848 182.213 28.112 182.412 27.959C182.616 27.8003 182.831 27.6643 183.058 27.551C183.284 27.4377 183.525 27.3498 183.78 27.2875C184.035 27.2252 184.313 27.194 184.613 27.194C185.089 27.194 185.506 27.2733 185.863 27.432C186.225 27.5907 186.529 27.8145 186.772 28.1035C187.022 28.3925 187.209 28.741 187.333 29.149C187.458 29.5513 187.52 29.9962 187.52 30.4835V36H185.701V30.4835C185.701 29.8998 185.565 29.4465 185.293 29.1235C185.027 28.8005 184.619 28.639 184.069 28.639C183.661 28.639 183.282 28.7325 182.93 28.9195C182.585 29.1065 182.259 29.3615 181.953 29.6845V36H180.125V27.33H181.23C181.48 27.33 181.638 27.4462 181.706 27.6785L181.834 28.4775ZM205.72 27.33L202.94 36H201.487C201.317 36 201.198 35.8895 201.13 35.6685L199.404 30.271C199.359 30.118 199.316 29.965 199.277 29.812C199.243 29.659 199.212 29.5088 199.183 29.3615C199.121 29.6675 199.044 29.9735 198.954 30.2795L197.203 35.6685C197.14 35.8895 197.007 36 196.803 36H195.418L192.638 27.33H194.083C194.225 27.33 194.341 27.3668 194.432 27.4405C194.528 27.5085 194.59 27.5907 194.619 27.687L196.064 32.736C196.12 32.9683 196.169 33.195 196.208 33.416C196.254 33.6313 196.293 33.8467 196.327 34.062C196.384 33.8467 196.443 33.6313 196.506 33.416C196.568 33.195 196.633 32.9683 196.701 32.736L198.325 27.6615C198.353 27.5595 198.41 27.4773 198.495 27.415C198.585 27.347 198.693 27.313 198.818 27.313H199.617C199.747 27.313 199.858 27.347 199.948 27.415C200.039 27.4773 200.098 27.5595 200.127 27.6615L201.708 32.736C201.776 32.9683 201.838 33.195 201.895 33.416C201.957 33.637 202.014 33.858 202.065 34.079C202.104 33.8637 202.147 33.6455 202.192 33.4245C202.238 33.2035 202.291 32.974 202.354 32.736L203.824 27.687C203.858 27.585 203.921 27.5 204.011 27.432C204.102 27.364 204.212 27.33 204.343 27.33H205.72ZM208.957 27.33V36H207.129V27.33H208.957ZM209.263 24.712C209.263 24.8763 209.229 25.0322 209.161 25.1795C209.099 25.3268 209.011 25.4572 208.897 25.5705C208.784 25.6782 208.651 25.766 208.498 25.834C208.351 25.8963 208.192 25.9275 208.022 25.9275C207.858 25.9275 207.702 25.8963 207.554 25.834C207.413 25.766 207.288 25.6782 207.18 25.5705C207.073 25.4572 206.985 25.3268 206.917 25.1795C206.855 25.0322 206.823 24.8763 206.823 24.712C206.823 24.542 206.855 24.3833 206.917 24.236C206.985 24.0887 207.073 23.9612 207.18 23.8535C207.288 23.7402 207.413 23.6523 207.554 23.59C207.702 23.522 207.858 23.488 208.022 23.488C208.192 23.488 208.351 23.522 208.498 23.59C208.651 23.6523 208.784 23.7402 208.897 23.8535C209.011 23.9612 209.099 24.0887 209.161 24.236C209.229 24.3833 209.263 24.542 209.263 24.712ZM214.033 36.136C213.313 36.136 212.758 35.9348 212.367 35.5325C211.981 35.1245 211.789 34.5522 211.789 33.8155V28.7665H210.837C210.735 28.7665 210.647 28.7353 210.573 28.673C210.499 28.605 210.463 28.5058 210.463 28.3755V27.636L211.865 27.432L212.265 24.9245C212.293 24.8282 212.341 24.7517 212.409 24.695C212.477 24.6327 212.568 24.6015 212.681 24.6015H213.616V27.449H216.022V28.7665H213.616V33.688C213.616 33.9997 213.693 34.2377 213.846 34.402C213.999 34.5663 214.203 34.6485 214.458 34.6485C214.599 34.6485 214.721 34.6315 214.823 34.5975C214.925 34.5578 215.013 34.5182 215.087 34.4785C215.16 34.4332 215.223 34.3935 215.274 34.3595C215.33 34.3198 215.384 34.3 215.435 34.3C215.537 34.3 215.619 34.3567 215.682 34.47L216.226 35.3625C215.942 35.6118 215.608 35.8045 215.223 35.9405C214.837 36.0708 214.441 36.136 214.033 36.136ZM219.29 28.3585C219.647 28.0072 220.038 27.7267 220.463 27.517C220.888 27.3017 221.383 27.194 221.95 27.194C222.426 27.194 222.843 27.2733 223.2 27.432C223.562 27.5907 223.865 27.8145 224.109 28.1035C224.358 28.3925 224.545 28.741 224.67 29.149C224.795 29.5513 224.857 29.9962 224.857 30.4835V36H223.038V30.4835C223.038 29.8998 222.902 29.4465 222.63 29.1235C222.364 28.8005 221.956 28.639 221.406 28.639C220.998 28.639 220.618 28.7325 220.267 28.9195C219.921 29.1065 219.596 29.3615 219.29 29.6845V36H217.462V23.42H219.29V28.3585ZM236.911 30.6875C236.911 30.3815 236.866 30.0982 236.775 29.8375C236.69 29.5712 236.563 29.3417 236.393 29.149C236.223 28.9507 236.01 28.7977 235.755 28.69C235.506 28.5767 235.217 28.52 234.888 28.52C234.225 28.52 233.704 28.7098 233.324 29.0895C232.945 29.4692 232.704 30.0018 232.602 30.6875H236.911ZM232.551 31.8095C232.573 32.3025 232.65 32.7303 232.78 33.093C232.911 33.45 233.083 33.7475 233.299 33.9855C233.52 34.2235 233.78 34.402 234.081 34.521C234.387 34.6343 234.727 34.691 235.101 34.691C235.458 34.691 235.767 34.6513 236.027 34.572C236.288 34.487 236.515 34.3963 236.707 34.3C236.9 34.198 237.064 34.1073 237.2 34.028C237.336 33.943 237.461 33.9005 237.574 33.9005C237.722 33.9005 237.835 33.9572 237.914 34.0705L238.433 34.742C238.217 34.997 237.974 35.2123 237.702 35.388C237.43 35.5637 237.141 35.7082 236.835 35.8215C236.529 35.9292 236.214 36.0057 235.891 36.051C235.568 36.102 235.254 36.1275 234.948 36.1275C234.347 36.1275 233.789 36.0283 233.273 35.83C232.763 35.626 232.318 35.3285 231.939 34.9375C231.565 34.5465 231.27 34.062 231.055 33.484C230.845 32.906 230.74 32.2402 230.74 31.4865C230.74 30.8858 230.834 30.3248 231.021 29.8035C231.213 29.2822 231.485 28.8288 231.837 28.4435C232.194 28.0582 232.624 27.755 233.129 27.534C233.639 27.3073 234.214 27.194 234.854 27.194C235.387 27.194 235.88 27.2818 236.333 27.4575C236.787 27.6275 237.178 27.8797 237.506 28.214C237.835 28.5483 238.09 28.9592 238.271 29.4465C238.458 29.9282 238.552 30.4778 238.552 31.0955C238.552 31.3788 238.521 31.5687 238.458 31.665C238.396 31.7613 238.283 31.8095 238.118 31.8095H232.551ZM240.256 36V27.33H241.361C241.61 27.33 241.769 27.4462 241.837 27.6785L241.956 28.435C242.115 28.2537 242.279 28.0893 242.449 27.942C242.619 27.789 242.8 27.6587 242.993 27.551C243.191 27.4377 243.401 27.3498 243.622 27.2875C243.849 27.2252 244.092 27.194 244.353 27.194C244.631 27.194 244.886 27.2337 245.118 27.313C245.35 27.3923 245.554 27.5057 245.73 27.653C245.911 27.8003 246.067 27.9788 246.198 28.1885C246.328 28.3982 246.436 28.6333 246.521 28.894C246.651 28.5937 246.815 28.3358 247.014 28.1205C247.212 27.9052 247.433 27.7295 247.677 27.5935C247.92 27.4575 248.178 27.3583 248.45 27.296C248.728 27.228 249.008 27.194 249.292 27.194C249.756 27.194 250.17 27.2677 250.533 27.415C250.901 27.5623 251.21 27.7777 251.459 28.061C251.714 28.3387 251.907 28.6815 252.037 29.0895C252.167 29.4975 252.233 29.9622 252.233 30.4835V36H250.405V30.4835C250.405 29.8715 250.272 29.4125 250.006 29.1065C249.745 28.7948 249.357 28.639 248.841 28.639C248.609 28.639 248.391 28.6787 248.187 28.758C247.983 28.8373 247.804 28.9535 247.651 29.1065C247.498 29.2595 247.376 29.4522 247.286 29.6845C247.201 29.9112 247.158 30.1775 247.158 30.4835V36H245.331V30.4835C245.331 29.8488 245.203 29.3842 244.948 29.0895C244.693 28.7892 244.319 28.639 243.826 28.639C243.486 28.639 243.172 28.7268 242.883 28.9025C242.594 29.0725 242.327 29.3077 242.084 29.608V36H240.256ZM259 32.209C258.348 32.2317 257.799 32.2855 257.351 32.3705C256.903 32.4498 256.541 32.5547 256.263 32.685C255.985 32.8097 255.784 32.9598 255.659 33.1355C255.54 33.3112 255.481 33.5038 255.481 33.7135C255.481 33.9175 255.512 34.0932 255.574 34.2405C255.642 34.3822 255.733 34.5012 255.846 34.5975C255.965 34.6882 256.101 34.7562 256.254 34.8015C256.413 34.8412 256.586 34.861 256.773 34.861C257.249 34.861 257.657 34.7732 257.997 34.5975C258.343 34.4162 258.677 34.1555 259 33.8155V32.209ZM254.155 28.537C255.135 27.6247 256.303 27.1685 257.657 27.1685C258.156 27.1685 258.598 27.2507 258.983 27.415C259.374 27.5737 259.7 27.8003 259.96 28.095C260.227 28.3897 260.428 28.741 260.564 29.149C260.706 29.5513 260.776 29.999 260.776 30.492V36H259.96C259.785 36 259.652 35.9745 259.561 35.9235C259.47 35.8668 259.394 35.7563 259.331 35.592L259.153 34.8865C258.932 35.0848 258.714 35.2633 258.498 35.422C258.283 35.575 258.059 35.7053 257.827 35.813C257.6 35.9207 257.354 36 257.087 36.051C256.827 36.1077 256.538 36.136 256.22 36.136C255.869 36.136 255.54 36.0878 255.234 35.9915C254.934 35.8952 254.673 35.7507 254.452 35.558C254.231 35.3597 254.056 35.116 253.925 34.827C253.801 34.538 253.738 34.198 253.738 33.807C253.738 33.4727 253.826 33.1468 254.002 32.8295C254.183 32.5122 254.478 32.2288 254.886 31.9795C255.3 31.7245 255.841 31.5148 256.509 31.3505C257.184 31.1862 258.014 31.0927 259 31.07V30.492C259 29.8687 258.867 29.404 258.6 29.098C258.334 28.792 257.943 28.639 257.427 28.639C257.076 28.639 256.781 28.6843 256.543 28.775C256.305 28.86 256.099 28.9535 255.923 29.0555C255.747 29.1575 255.591 29.2538 255.455 29.3445C255.319 29.4295 255.175 29.472 255.022 29.472C254.897 29.472 254.79 29.4408 254.699 29.3785C254.614 29.3105 254.543 29.2283 254.486 29.132L254.155 28.537ZM264.821 27.33V36H262.994V27.33H264.821ZM265.127 24.712C265.127 24.8763 265.093 25.0322 265.025 25.1795C264.963 25.3268 264.875 25.4572 264.762 25.5705C264.648 25.6782 264.515 25.766 264.362 25.834C264.215 25.8963 264.056 25.9275 263.886 25.9275C263.722 25.9275 263.566 25.8963 263.419 25.834C263.277 25.766 263.152 25.6782 263.045 25.5705C262.937 25.4572 262.849 25.3268 262.781 25.1795C262.719 25.0322 262.688 24.8763 262.688 24.712C262.688 24.542 262.719 24.3833 262.781 24.236C262.849 24.0887 262.937 23.9612 263.045 23.8535C263.152 23.7402 263.277 23.6523 263.419 23.59C263.566 23.522 263.722 23.488 263.886 23.488C264.056 23.488 264.215 23.522 264.362 23.59C264.515 23.6523 264.648 23.7402 264.762 23.8535C264.875 23.9612 264.963 24.0887 265.025 24.236C265.093 24.3833 265.127 24.542 265.127 24.712ZM268.979 23.42V36H267.151V23.42H268.979Z" fill="white"/>
</svg>
