<svg width="430" height="61" viewBox="0 0 430 61" fill="none" xmlns="http://www.w3.org/2000/svg">
<rect x="0.5" y="0.5" width="429" height="60" rx="4.5" fill="white" stroke="#329E50"/>
<path d="M191.854 25.851C191.792 25.953 191.727 26.0295 191.659 26.0805C191.591 26.1258 191.506 26.1485 191.404 26.1485C191.296 26.1485 191.174 26.1032 191.038 26.0125C190.908 25.9218 190.743 25.8227 190.545 25.715C190.352 25.6017 190.123 25.4997 189.857 25.409C189.59 25.3127 189.273 25.2645 188.905 25.2645C188.565 25.2645 188.264 25.307 188.004 25.392C187.749 25.477 187.533 25.596 187.358 25.749C187.182 25.902 187.049 26.0833 186.958 26.293C186.873 26.497 186.831 26.7208 186.831 26.9645C186.831 27.2762 186.913 27.5368 187.077 27.7465C187.241 27.9505 187.457 28.1262 187.723 28.2735C187.995 28.4208 188.304 28.5512 188.65 28.6645C188.995 28.7722 189.347 28.8883 189.704 29.013C190.066 29.1377 190.42 29.2793 190.766 29.438C191.112 29.5967 191.418 29.7978 191.684 30.0415C191.956 30.2852 192.174 30.5827 192.339 30.934C192.503 31.2853 192.585 31.7132 192.585 32.2175C192.585 32.7615 192.492 33.2715 192.305 33.7475C192.118 34.2235 191.846 34.64 191.489 34.997C191.137 35.3483 190.701 35.626 190.18 35.83C189.664 36.034 189.075 36.136 188.412 36.136C188.021 36.136 187.638 36.0963 187.264 36.017C186.896 35.9433 186.542 35.8385 186.202 35.7025C185.867 35.5608 185.553 35.3908 185.258 35.1925C184.963 34.9942 184.7 34.7732 184.468 34.5295L185.046 33.5775C185.097 33.4982 185.162 33.4358 185.241 33.3905C185.32 33.3452 185.408 33.3225 185.505 33.3225C185.635 33.3225 185.779 33.3848 185.938 33.5095C186.097 33.6285 186.287 33.7617 186.508 33.909C186.734 34.0507 187.006 34.1838 187.324 34.3085C187.641 34.4275 188.021 34.487 188.463 34.487C189.182 34.487 189.738 34.3113 190.129 33.96C190.525 33.6087 190.724 33.1242 190.724 32.5065C190.724 32.1608 190.641 31.8803 190.477 31.665C190.313 31.444 190.095 31.2598 189.823 31.1125C189.556 30.9652 189.25 30.8405 188.905 30.7385C188.559 30.6365 188.208 30.5288 187.851 30.4155C187.494 30.2965 187.142 30.1605 186.797 30.0075C186.451 29.8488 186.142 29.6448 185.87 29.3955C185.604 29.1405 185.388 28.8288 185.224 28.4605C185.06 28.0865 184.978 27.6218 184.978 27.0665C184.978 26.6245 185.063 26.1967 185.233 25.783C185.408 25.3693 185.66 25.0038 185.989 24.6865C186.323 24.3635 186.734 24.1057 187.222 23.913C187.709 23.7203 188.264 23.624 188.888 23.624C189.59 23.624 190.233 23.7345 190.817 23.9555C191.406 24.1765 191.914 24.491 192.339 24.899L191.854 25.851ZM196.231 27.33V36H194.404V27.33H196.231ZM196.537 24.712C196.537 24.8763 196.503 25.0322 196.435 25.1795C196.373 25.3268 196.285 25.4572 196.172 25.5705C196.059 25.6782 195.925 25.766 195.772 25.834C195.625 25.8963 195.466 25.9275 195.296 25.9275C195.132 25.9275 194.976 25.8963 194.829 25.834C194.687 25.766 194.563 25.6782 194.455 25.5705C194.347 25.4572 194.259 25.3268 194.191 25.1795C194.129 25.0322 194.098 24.8763 194.098 24.712C194.098 24.542 194.129 24.3833 194.191 24.236C194.259 24.0887 194.347 23.9612 194.455 23.8535C194.563 23.7402 194.687 23.6523 194.829 23.59C194.976 23.522 195.132 23.488 195.296 23.488C195.466 23.488 195.625 23.522 195.772 23.59C195.925 23.6523 196.059 23.7402 196.172 23.8535C196.285 23.9612 196.373 24.0887 196.435 24.236C196.503 24.3833 196.537 24.542 196.537 24.712ZM201.622 31.5885C202.188 31.5885 202.613 31.444 202.897 31.155C203.18 30.866 203.322 30.4892 203.322 30.0245C203.322 29.5485 203.18 29.1717 202.897 28.894C202.613 28.6163 202.188 28.4775 201.622 28.4775C201.061 28.4775 200.636 28.6163 200.347 28.894C200.063 29.1717 199.922 29.5485 199.922 30.0245C199.922 30.2512 199.958 30.4608 200.032 30.6535C200.106 30.8462 200.213 31.0133 200.355 31.155C200.497 31.291 200.672 31.3987 200.882 31.478C201.097 31.5517 201.344 31.5885 201.622 31.5885ZM204.163 36.425C204.163 36.2323 204.106 36.0793 203.993 35.966C203.885 35.847 203.738 35.7563 203.551 35.694C203.364 35.626 203.146 35.5778 202.897 35.5495C202.647 35.5155 202.381 35.4928 202.098 35.4815C201.82 35.4645 201.534 35.4503 201.239 35.439C200.95 35.422 200.67 35.3937 200.398 35.354C200.126 35.4957 199.902 35.6657 199.726 35.864C199.556 36.0623 199.471 36.2918 199.471 36.5525C199.471 36.7225 199.514 36.8812 199.599 37.0285C199.689 37.1758 199.825 37.3033 200.007 37.411C200.194 37.5187 200.429 37.6037 200.712 37.666C201.001 37.7283 201.347 37.7595 201.749 37.7595C202.554 37.7595 203.157 37.6348 203.56 37.3855C203.962 37.1362 204.163 36.816 204.163 36.425ZM205.999 27.6445V28.3245C205.999 28.5512 205.863 28.69 205.591 28.741L204.724 28.8855C204.871 29.2142 204.945 29.5797 204.945 29.982C204.945 30.407 204.86 30.7923 204.69 31.138C204.526 31.4837 204.296 31.7783 204.002 32.022C203.707 32.2657 203.356 32.4527 202.948 32.583C202.54 32.7133 202.098 32.7785 201.622 32.7785C201.44 32.7785 201.262 32.77 201.086 32.753C200.916 32.7303 200.749 32.702 200.585 32.668C200.42 32.7643 200.298 32.8663 200.219 32.974C200.14 33.0817 200.1 33.1922 200.1 33.3055C200.1 33.4925 200.182 33.6313 200.347 33.722C200.511 33.8127 200.726 33.8778 200.993 33.9175C201.265 33.9572 201.573 33.9827 201.919 33.994C202.265 34.0053 202.616 34.0252 202.973 34.0535C203.33 34.0818 203.681 34.13 204.027 34.198C204.373 34.2603 204.679 34.368 204.945 34.521C205.217 34.6683 205.435 34.8695 205.6 35.1245C205.764 35.3795 205.846 35.711 205.846 36.119C205.846 36.493 205.753 36.8585 205.566 37.2155C205.379 37.5725 205.107 37.8898 204.75 38.1675C204.398 38.4452 203.968 38.6662 203.458 38.8305C202.948 39.0005 202.367 39.0855 201.715 39.0855C201.069 39.0855 200.505 39.0232 200.024 38.8985C199.548 38.7738 199.148 38.6038 198.825 38.3885C198.508 38.1788 198.27 37.9352 198.111 37.6575C197.958 37.3798 197.882 37.0908 197.882 36.7905C197.882 36.3825 198.009 36.034 198.264 35.745C198.525 35.456 198.876 35.2293 199.318 35.065C199.08 34.9517 198.887 34.7958 198.74 34.5975C198.598 34.3992 198.528 34.1385 198.528 33.8155C198.528 33.5605 198.621 33.2942 198.808 33.0165C198.995 32.7388 199.276 32.5037 199.65 32.311C199.219 32.073 198.879 31.7585 198.63 31.3675C198.38 30.9708 198.256 30.509 198.256 29.982C198.256 29.5513 198.338 29.1632 198.502 28.8175C198.672 28.4718 198.907 28.1772 199.208 27.9335C199.508 27.6898 199.862 27.5028 200.27 27.3725C200.684 27.2422 201.134 27.177 201.622 27.177C202.37 27.177 203.021 27.3328 203.577 27.6445H205.999ZM209.151 28.4775C209.338 28.2848 209.531 28.112 209.729 27.959C209.933 27.8003 210.148 27.6643 210.375 27.551C210.602 27.4377 210.843 27.3498 211.098 27.2875C211.353 27.2252 211.63 27.194 211.931 27.194C212.407 27.194 212.823 27.2733 213.18 27.432C213.543 27.5907 213.846 27.8145 214.09 28.1035C214.339 28.3925 214.526 28.741 214.651 29.149C214.775 29.5513 214.838 29.9962 214.838 30.4835V36H213.019V30.4835C213.019 29.8998 212.883 29.4465 212.611 29.1235C212.344 28.8005 211.936 28.639 211.387 28.639C210.979 28.639 210.599 28.7325 210.248 28.9195C209.902 29.1065 209.576 29.3615 209.27 29.6845V36H207.443V27.33H208.548C208.797 27.33 208.956 27.4462 209.024 27.6785L209.151 28.4775ZM226.373 34.3935C226.844 34.3935 227.263 34.3142 227.631 34.1555C228.005 33.9968 228.32 33.7758 228.575 33.4925C228.835 33.2092 229.034 32.8692 229.17 32.4725C229.306 32.0702 229.374 31.6253 229.374 31.138V23.76H231.354V31.138C231.354 31.8577 231.238 32.5235 231.006 33.1355C230.779 33.7475 230.45 34.2773 230.02 34.725C229.589 35.167 229.065 35.5155 228.447 35.7705C227.835 36.0198 227.144 36.1445 226.373 36.1445C225.603 36.1445 224.908 36.0198 224.291 35.7705C223.679 35.5155 223.157 35.167 222.727 34.725C222.296 34.2773 221.965 33.7475 221.732 33.1355C221.506 32.5235 221.392 31.8577 221.392 31.138V23.76H223.381V31.1295C223.381 31.6168 223.449 32.0617 223.585 32.464C223.721 32.8607 223.917 33.2035 224.172 33.4925C224.427 33.7758 224.738 33.9968 225.107 34.1555C225.481 34.3142 225.903 34.3935 226.373 34.3935ZM235.335 33.824C235.59 34.1527 235.867 34.385 236.168 34.521C236.474 34.6513 236.811 34.7165 237.179 34.7165C237.893 34.7165 238.448 34.4558 238.845 33.9345C239.247 33.4132 239.449 32.6368 239.449 31.6055C239.449 31.0728 239.403 30.6195 239.313 30.2455C239.222 29.8658 239.092 29.557 238.922 29.319C238.752 29.081 238.545 28.9082 238.301 28.8005C238.057 28.6928 237.783 28.639 237.477 28.639C237.012 28.639 236.61 28.741 236.27 28.945C235.935 29.1433 235.624 29.4295 235.335 29.8035V33.824ZM235.241 28.588C235.604 28.163 236.015 27.8202 236.474 27.5595C236.938 27.2988 237.477 27.1685 238.089 27.1685C238.576 27.1685 239.018 27.2677 239.415 27.466C239.811 27.6587 240.151 27.942 240.435 28.316C240.718 28.69 240.936 29.1547 241.089 29.71C241.248 30.2597 241.327 30.8915 241.327 31.6055C241.327 32.2458 241.239 32.8437 241.064 33.399C240.894 33.9487 240.647 34.4275 240.324 34.8355C240.001 35.2378 239.61 35.5552 239.151 35.7875C238.692 36.0142 238.174 36.1275 237.596 36.1275C237.086 36.1275 236.652 36.0453 236.295 35.881C235.944 35.7167 235.624 35.49 235.335 35.201V38.8815H233.507V27.33H234.612C234.861 27.33 235.02 27.4462 235.088 27.6785L235.241 28.588Z" fill="#329E50"/>
</svg>
