<svg xmlns="http://www.w3.org/2000/svg" width="40.486" height="22.138" viewBox="0 0 40.486 22.138">
  <g id="Group_161" data-name="Group 161" transform="translate(-633 -1514.445)">
    <g id="Money__61470__-_The_Noun_Project" data-name="Money_(61470)_-_The_Noun_Project" transform="translate(633 1514.445)">
      <path id="Path_298" data-name="Path 298" d="M2,13.061V25.307a3.07,3.07,0,0,0,3.061,3.061H29.553a3.07,3.07,0,0,0,3.061-3.061V13.061A3.07,3.07,0,0,0,29.553,10H5.061A3.07,3.07,0,0,0,2,13.061Zm28.166,9.031-1.072.918h-.306a1.9,1.9,0,0,0-1.99,1.837v.306l-1.072.918H8.735l-1.072-.918v-.306a1.9,1.9,0,0,0-1.99-1.837H5.368L4.3,22.093v-5.97L5.368,15.2h.306a1.9,1.9,0,0,0,1.99-1.837v-.306l1.072-.918H25.88l1.072.918v.306a1.9,1.9,0,0,0,1.99,1.837h.306l1.072.918v5.97Zm-2.449-2.908a2,2,0,1,1-1.99-1.837A1.9,1.9,0,0,1,27.716,19.184Zm-5.664,0a4.451,4.451,0,0,1-4.592,4.286,4.3,4.3,0,1,1,0-8.572A4.451,4.451,0,0,1,22.053,19.184Zm-11.174,0a1.9,1.9,0,0,1-1.99,1.837,1.843,1.843,0,1,1,0-3.674A1.9,1.9,0,0,1,10.878,19.184Z" transform="translate(-2 -10)" fill="gray"/>
    </g>
    <g id="_8a0039307e6d666bed514296e0266943" data-name="8a0039307e6d666bed514296e0266943" transform="translate(665.493 1526.593)">
      <g id="Group_160" data-name="Group 160" transform="translate(0 0)">
        <path id="Path_300" data-name="Path 300" d="M406.127-254.423a6.473,6.473,0,0,0-2.277.678,2.169,2.169,0,0,0-.784.768l-.091.188-.009,3.259c-.009,3.633-.022,3.4.207,3.749a3.914,3.914,0,0,0,2.434,1.176,6.732,6.732,0,0,0,2.328.066c1.663-.245,2.751-.838,2.974-1.619a27.629,27.629,0,0,0,.044-3.388l-.009-3.212-.107-.216c-.326-.662-1.293-1.154-2.745-1.4A8.975,8.975,0,0,0,406.127-254.423Zm1.622,1.321a5.465,5.465,0,0,1,1.55.439c.238.122.3.179.242.229a3.708,3.708,0,0,1-.791.348,5.865,5.865,0,0,1-3.272.094,2.733,2.733,0,0,1-1.139-.493,1.541,1.541,0,0,1,.558-.3,6.246,6.246,0,0,1,1.22-.311A7.663,7.663,0,0,1,407.749-253.1Zm-2.864,2.309a7.294,7.294,0,0,0,3.131.216,7.457,7.457,0,0,0,1.572-.414c.047-.025.053-.006.053.223,0,.248,0,.251-.1.326a4.813,4.813,0,0,1-2.017.621,6.4,6.4,0,0,1-2.215-.2,3.329,3.329,0,0,1-.916-.4c-.116-.094-.116-.094-.116-.342v-.248l.147.063C404.506-250.916,404.713-250.847,404.885-250.793Zm-.075,1.983a6.987,6.987,0,0,0,2.133.317,7.088,7.088,0,0,0,2.394-.4l.3-.107v.245c0,.238,0,.248-.1.32a5.379,5.379,0,0,1-3.288.6,4.722,4.722,0,0,1-1.832-.565l-.129-.1-.009-.257-.009-.257.138.06C404.484-248.917,404.666-248.855,404.81-248.811Zm.3,2.089a7.816,7.816,0,0,0,1.33.226,7.4,7.4,0,0,0,2.9-.389l.3-.107v.242c0,.285-.019.311-.361.48a5.806,5.806,0,0,1-2.35.493,5.537,5.537,0,0,1-2.494-.593l-.16-.1v-.521l.229.091C404.634-246.856,404.9-246.772,405.111-246.722Z" transform="translate(-402.961 254.457)" fill="gray"/>
      </g>
    </g>
  </g>
</svg>
