<svg width="75" height="53" viewBox="0 0 75 53" fill="none" xmlns="http://www.w3.org/2000/svg">
<path d="M70.3075 52.0677H4.6825C3.4406 52.0664 2.24998 51.5761 1.37205 50.7044C0.49413 49.8328 0.000664311 48.651 2.66902e-06 47.4186V33.4614C1.86547 33.4614 3.65453 32.726 4.97361 31.417C6.2927 30.1081 7.03375 28.3327 7.03375 26.4815C7.03375 24.6304 6.2927 22.855 4.97361 21.5461C3.65453 20.2371 1.86547 19.5017 2.66902e-06 19.5017V5.54202C-0.000654253 4.93128 0.11996 4.32637 0.354953 3.7619C0.589946 3.19744 0.934712 2.68446 1.36956 2.25226C1.8044 1.82006 2.32079 1.47711 2.88924 1.24302C3.45769 1.00892 4.06705 0.888265 4.6825 0.887939H70.3075C71.552 0.887939 72.7456 1.37853 73.6256 2.2518C74.5056 3.12508 75 4.30949 75 5.54448V19.4943C73.1345 19.4943 71.3455 20.2296 70.0264 21.5386C68.7073 22.8476 67.9662 24.623 67.9662 26.4741C67.9662 28.3253 68.7073 30.1006 70.0264 31.4096C71.3455 32.7186 73.1345 33.454 75 33.454V47.4037C75.001 48.0159 74.8803 48.6222 74.645 49.188C74.4096 49.7538 74.0641 50.268 73.6283 50.7012C73.1924 51.1344 72.6748 51.4781 72.105 51.7125C71.5352 51.947 70.9244 52.0677 70.3075 52.0677ZM70.3075 37.1306C68.217 36.2288 66.4376 34.7407 65.1877 32.8491C63.9378 30.9575 63.2719 28.7448 63.2719 26.4828C63.2719 24.2208 63.9378 22.0081 65.1877 20.1165C66.4376 18.2249 68.217 16.7368 70.3075 15.835V7.87648C70.3075 7.25997 70.0607 6.66869 69.6214 6.23275C69.1821 5.79681 68.5863 5.55194 67.965 5.55194H25.7825V9.03752C25.7825 9.34544 25.6592 9.64073 25.4398 9.85847C25.2204 10.0762 24.9228 10.1986 24.6125 10.1986H22.27C21.9597 10.1986 21.6621 10.0762 21.4427 9.85847C21.2233 9.64073 21.1 9.34544 21.1 9.03752V5.55194H7.0325C6.41123 5.55194 5.81541 5.79681 5.3761 6.23275C4.9368 6.66869 4.69 7.25997 4.69 7.87648V15.835C6.78046 16.7368 8.55995 18.2249 9.80983 20.1165C11.0597 22.0081 11.7256 24.2208 11.7256 26.4828C11.7256 28.7448 11.0597 30.9575 9.80983 32.8491C8.55995 34.7407 6.78046 36.2288 4.69 37.1306V45.0891C4.69 45.7056 4.9368 46.2969 5.3761 46.7328C5.81541 47.1687 6.41123 47.4137 7.0325 47.4137H21.1V43.9281C21.0993 43.7754 21.1292 43.6241 21.1877 43.483C21.2463 43.3418 21.3324 43.2136 21.4412 43.1056C21.55 42.9977 21.6792 42.9122 21.8215 42.8541C21.9637 42.796 22.1162 42.7664 22.27 42.767H24.6125C24.7663 42.7664 24.9188 42.796 25.061 42.8541C25.2033 42.9122 25.3325 42.9977 25.4413 43.1056C25.5501 43.2136 25.6362 43.3418 25.6948 43.483C25.7533 43.6241 25.7832 43.7754 25.7825 43.9281V47.4137H67.9675C68.5888 47.4137 69.1846 47.1687 69.6239 46.7328C70.0632 46.2969 70.31 45.7056 70.31 45.0891L70.3075 37.1306ZM24.6125 38.1006H22.27C21.9597 38.1006 21.6621 37.9783 21.4427 37.7605C21.2233 37.5428 21.1 37.2475 21.1 36.9395V29.9609C21.0993 29.8083 21.1292 29.657 21.1877 29.5159C21.2463 29.3747 21.3324 29.2464 21.4412 29.1385C21.55 29.0305 21.6792 28.9451 21.8215 28.8869C21.9637 28.8288 22.1162 28.7993 22.27 28.7999H24.6125C24.7663 28.7993 24.9188 28.8288 25.061 28.8869C25.2033 28.9451 25.3325 29.0305 25.4413 29.1385C25.5501 29.2464 25.6362 29.3747 25.6948 29.5159C25.7533 29.657 25.7832 29.8083 25.7825 29.9609V36.9395C25.7812 37.2471 25.6575 37.5416 25.4384 37.7591C25.2192 37.9765 24.9224 38.0993 24.6125 38.1006ZM24.6125 24.1508H22.27C21.9597 24.1508 21.6621 24.0285 21.4427 23.8107C21.2233 23.593 21.1 23.2977 21.1 22.9898V16.0211C21.0993 15.8684 21.1292 15.7172 21.1877 15.576C21.2463 15.4348 21.3324 15.3066 21.4412 15.1986C21.55 15.0907 21.6792 15.0052 21.8215 14.9471C21.9637 14.889 22.1162 14.8594 22.27 14.8601H24.6125C24.7663 14.8594 24.9188 14.889 25.061 14.9471C25.2033 15.0052 25.3325 15.0907 25.4413 15.1986C25.5501 15.3066 25.6362 15.4348 25.6948 15.576C25.7533 15.7172 25.7832 15.8684 25.7825 16.0211V22.9997C25.7805 23.3068 25.6565 23.6007 25.4375 23.8176C25.2184 24.0346 24.922 24.157 24.6125 24.1583V24.1508Z" fill="#4A6652"/>
</svg>
